<svg xmlns="http://www.w3.org/2000/svg" id="Layer_1" version="1.1" viewBox="23.2 372.9 548 114.7">  <!-- Generator: Adobe Illustrator 29.5.1, SVG Export Plug-In . SVG Version: 2.1.0 Build 141)  -->  <g isolation="isolate">    <g isolation="isolate">      <g isolation="isolate">        <path d="M120.4,463v10.6c-3.4,2.5-7.1,4.8-11.1,6.9-4,2.1-8.1,3.8-12.5,5.1-4.4,1.3-8.9,2-13.6,2-8.3,0-16-1.5-23.3-4.6-7.3-3.1-13.6-7.3-19.1-12.6-5.5-5.3-9.8-11.5-12.9-18.4-3.1-6.9-4.7-14.2-4.7-21.8s1.6-14.9,4.7-21.8c3.1-6.9,7.4-13,12.9-18.3,5.5-5.3,11.8-9.5,19.1-12.6,7.3-3.1,15-4.6,23.3-4.6s9.2.6,13.6,1.9c4.4,1.3,8.6,3,12.5,5.1,4,2.1,7.7,4.4,11.1,6.9v10c-2.7-3.5-5.8-6.7-9.5-9.7-3.6-3-7.8-5.4-12.4-7.1-4.6-1.8-9.8-2.7-15.4-2.7s-14.6,1.6-20.5,4.7c-6,3.2-11,7.3-15.2,12.5-4.1,5.2-7.2,10.9-9.4,17.1-2.1,6.2-3.2,12.4-3.2,18.6s1,12.3,3,18.6c2,6.2,5.1,11.9,9.1,17.1,4,5.2,9.1,9.3,15.1,12.5,6,3.2,13,4.7,21,4.7s10.6-.9,15.2-2.8c4.6-1.9,8.8-4.3,12.5-7.3,3.7-3,6.9-6.3,9.6-9.9Z" fill="currentColor"></path>        <path d="M233.2,485.5l-13.6-33c-6.2-.4-11.4-1.2-15.5-2.4-4.2-1.2-8-2.5-11.4-4-3.4-1.4-7.2-2.7-11.2-3.8-4-1.1-9-1.9-14.8-2.3l-18,45.5h-6.6l44.5-110.4h13.5l44.4,110.4h-11.2ZM168.1,436.5c6.6.4,12,1.1,16.3,2.3,4.3,1.2,8.2,2.5,11.7,4,3,1.2,6.2,2.4,9.7,3.4,3.4,1,7.5,1.8,12.2,2.2l-27.7-67.5-22.1,55.5Z" fill="currentColor"></path>        <path d="M344.9,378.7h-61.1v49.7h48.2v3.4h-48.1v50.3h61v3.4h-72.8v-3.4c0,0,0,0,0,0v-52.2c0,0,0-54.6,0-54.6h72.9v3.4Z" fill="currentColor"></path>        <path d="M384.2,482.1h61v3.4h-72.8v-3.4c0,0,0,0,0,0v-106.8c0,0,11.7,0,11.7,0v106.8Z" fill="currentColor"></path>        <path d="M528,375.2h3.9l-43.2,110.4h-12.8l-46.1-110.1,12.5-.2,44.4,105.4,41.3-105.4Z" fill="currentColor"></path>        <path d="M559.4,375.3h11.8v110.3c0,0-11.7,0-11.7,0v-110.3Z" fill="currentColor"></path>      </g>    </g>  </g></svg>