<?xml version="1.0" encoding="utf-8"?>
<svg xmlns="http://www.w3.org/2000/svg" viewBox="270.376 366.519 66.88 55.95">
  <defs>
    <style>.cls-2{fill:#f07d97}</style>
    <linearGradient gradientUnits="userSpaceOnUse" x1="305.302" y1="368.154" x2="305.302" y2="374.301" id="gradient-0">
      <stop offset="0" style="stop-color: rgb(94.118% 49.02% 59.216%)"/>
      <stop offset="1" style="stop-color: rgb(203, 61, 101);"/>
    </linearGradient>
    <linearGradient gradientUnits="userSpaceOnUse" x1="320.142" y1="373.68" x2="320.142" y2="422.733" id="gradient-1" gradientTransform="matrix(1, 0, 0, 1, -0.99863, -0.052336)">
      <stop offset="0" style="stop-color: rgb(94.118% 49.02% 59.216%)"/>
      <stop offset="1" style="stop-color: rgb(219, 77, 118);"/>
    </linearGradient>
    <linearGradient gradientUnits="userSpaceOnUse" x1="285.436" y1="370.99" x2="285.436" y2="422.353" id="gradient-2">
      <stop offset="0" style="stop-color: rgb(94.118% 49.02% 59.216%)"/>
      <stop offset="1" style="stop-color: rgb(209, 77, 115);"/>
    </linearGradient>
    <linearGradient gradientUnits="userSpaceOnUse" x1="290.69" y1="394.143" x2="290.69" y2="413.153" id="gradient-3">
      <stop offset="0" style="stop-color: rgb(94.118% 49.02% 59.216%)"/>
      <stop offset="1" style="stop-color: rgb(219, 74, 116);"/>
    </linearGradient>
    <linearGradient gradientUnits="userSpaceOnUse" x1="324.201" y1="378.388" x2="324.201" y2="401.908" id="gradient-4">
      <stop offset="0" style="stop-color: rgb(94.118% 49.02% 59.216%)"/>
      <stop offset="1" style="stop-color: rgb(227, 68, 113);"/>
    </linearGradient>
    <linearGradient gradientUnits="userSpaceOnUse" x1="304.689" y1="378.105" x2="304.689" y2="403.258" id="gradient-5">
      <stop offset="0" style="stop-color: rgb(94.118% 49.02% 59.216%)"/>
      <stop offset="1" style="stop-color: rgb(224, 66, 111);"/>
    </linearGradient>
    <linearGradient gradientUnits="userSpaceOnUse" x1="309.585" y1="380" x2="309.585" y2="380" id="gradient-6">
      <stop offset="0" style="stop-color: rgb(94.118% 49.02% 59.216%)"/>
      <stop offset="1" style="stop-color: rgb(63.455% 21.097% 33.158%)"/>
    </linearGradient>
  </defs>
  <g transform="matrix(0.99863, -0.052336, 0.052336, 0.99863, -20.307047, 15.505173)">
    <path class="cls-2" d="M 283.992 369.331 C 291.112 368.105 298.252 367.908 305.392 368.411 C 312.502 369.112 319.732 369.988 326.612 374.301 C 325.732 374.016 324.852 373.71 323.972 373.381 C 311.273 370.126 297.149 371.085 283.992 369.353 L 283.992 369.331 Z" style="stroke-width: 27px; stroke-linejoin: bevel; stroke-linecap: square; stroke-dashoffset: -100px; transform-box: fill-box; transform-origin: 50% 50%; fill: url(&quot;#gradient-0&quot;);" transform="matrix(0.999391, -0.034899, 0.034899, 0.999391, 0, 0)"/>
    <path class="cls-2" d="M 326.551 373.628 C 330.525 378.536 333.311 383.373 335.624 389.628 L 335.752 390.238 L 335.131 390.898 C 325.72 402.087 314.893 414.193 302.533 422.681 C 309.963 414.081 316.972 405.655 325.807 397.196 C 328.539 394.58 331.04 391.561 333.354 388.631 L 333.542 390.455 C 331.032 384.825 328.771 379.398 326.551 373.638 L 326.551 373.628 Z" style="stroke-width: 27px; stroke-linejoin: bevel; stroke-linecap: square; stroke-dashoffset: -100px; fill: url(&quot;#gradient-1&quot;); transform-box: fill-box; transform-origin: 50% 50%;"/>
    <path class="cls-2" d="M 282.087 370.99 C 279.641 376.597 277.145 382.046 273.842 387.01 L 274.538 385.498 C 276.671 388.428 278.786 391.378 280.874 394.358 C 287.13 403.298 292.953 412.903 298.593 422.353 C 289.291 411.71 279.941 399.711 272.61 387.07 L 272.28 386.57 L 272.51 386.008 C 275.219 379.458 278.777 375.91 282.096 370.99 L 282.087 370.99 Z" style="stroke-width: 27px; stroke-linejoin: bevel; stroke-linecap: square; stroke-dashoffset: -100px; fill: url(&quot;#gradient-2&quot;);"/>
    <path class="cls-2" d="M 284.45 394.143 C 290.811 399.829 294.668 405.973 296.93 413.153 C 292.2 407.203 288.04 400.853 284.45 394.143 Z" style="stroke-width: 27px; stroke-linejoin: bevel; stroke-linecap: square; stroke-dashoffset: -100px; transform-box: fill-box; transform-origin: 50% 50%; fill: url(&quot;#gradient-3&quot;);"/>
    <path class="cls-2" d="M 326.471 378.388 C 327.931 382.058 329.191 385.798 330.401 389.558 C 328.381 391.728 326.341 393.868 324.241 395.968 C 322.201 397.988 320.151 399.998 318.001 401.908 C 319.801 399.658 324.361 393.24 326.344 391.176 C 328.487 388.945 328.649 387.926 329.414 388.78 C 330.948 389.051 328.669 390.54 328.684 390.343 C 327.604 386.643 326.883 382.096 326.461 378.388 L 326.471 378.388 Z" style="stroke-width: 27px; stroke-linejoin: bevel; stroke-linecap: square; stroke-dashoffset: -100px; transform-box: fill-box; transform-origin: 50% 50%; fill: url(&quot;#gradient-4&quot;);"/>
    <path class="cls-2" d="M 314.39 399.205 C 312.3 401.713 309.28 403.277 305.92 403.258 C 299.59 403.224 294.45 397.555 294.45 390.615 C 294.45 383.675 299.396 379.709 305.569 378.306 C 307.237 377.927 308.189 378.164 309.508 378.368 C 311.915 378.943 314.424 382.118 314.322 382.081 C 313.152 381.354 311.285 380.498 309.485 380.29 C 304.488 379.713 297.828 384.032 297.828 390.462 C 297.828 396.892 300.71 402.13 305.74 402.157 C 308.58 402.173 313.257 399.042 314.927 396.451 L 314.39 399.205 Z" style="stroke-width: 27px; stroke-linejoin: bevel; stroke-linecap: square; stroke-dashoffset: -100px; fill: url(&quot;#gradient-5&quot;);"/>
    <path class="cls-2" d="M 309.58 380 L 309.59 380 L 309.58 380 Z" style="stroke-width: 27px; stroke-linecap: square; stroke-dashoffset: -100px; paint-order: fill; stroke-miterlimit: 1; fill: url(&quot;#gradient-6&quot;);"/>
  </g>
</svg>