<?xml version="1.0" encoding="UTF-8"?>
<svg id="Layer_1" xmlns="http://www.w3.org/2000/svg" version="1.1" viewBox="0 0 612 792">
  <!-- Generator: Adobe Illustrator 29.5.1, SVG Export Plug-In . SVG Version: 2.1.0 Build 141)  -->
  <path d="M132.8,497.6c1.9,0,3.9,0,5.8,0,4,0,8.1,0,12.1,0,5.2,0,10.3,0,15.5,0,4,0,8,0,12,0,1.9,0,3.8,0,5.7,0q19.3-.1,27,6.8,2.3,2.4,3.6,4.6c.5.7.9,1.5,1.4,2.2,2.3,4.6,2.2,9.1,2.2,14.2q0,1.2,0,2.4c0,2.7,0,5.3,0,8,0,1.9,0,3.7,0,5.6,0,3.9,0,7.8,0,11.7,0,5,0,10,0,14.9,0,3.8,0,7.7,0,11.5,0,1.8,0,3.7,0,5.5,0,2.6,0,5.1,0,7.7,0,.8,0,1.5,0,2.3,0,6.6-1.7,12.9-6.1,18-.4.5-.9,1.1-1.3,1.6-5.8,4.8-11.5,6.2-18.9,6.2-.9,0-1.7,0-2.6,0-2.8,0-5.6,0-8.4,0-2,0-3.9,0-5.9,0-4.1,0-8.2,0-12.3,0-5.2,0-10.5,0-15.7,0-4.1,0-8.1,0-12.2,0-1.9,0-3.9,0-5.8,0q-20.1.1-28.3-7.7c-.4-.6-.9-1.3-1.3-1.9q-.7-.9-1.4-1.9c-3-5.4-3.5-10.4-3.5-16.4q0-1.2,0-2.4c0-2.7,0-5.3,0-8,0-1.9,0-3.7,0-5.6,0-3.9,0-7.8,0-11.7,0-5,0-9.9,0-14.9,0-3.8,0-7.7,0-11.5,0-1.8,0-3.7,0-5.5,0-2.6,0-5.1,0-7.7q0-1.1,0-2.3c0-7,1.9-13.7,6.8-18.9,9.2-8,20-7.1,31.5-7.1ZM113.5,517.3c-1.9,3.6-2.1,6.6-2.1,10.6,0,.8,0,1.5,0,2.3,0,2.5,0,5,0,7.4,0,1.7,0,3.5,0,5.2,0,3.6,0,7.2,0,10.9,0,4.6,0,9.3,0,13.9,0,3.6,0,7.1,0,10.7,0,1.7,0,3.4,0,5.1,0,2.4,0,4.8,0,7.2,0,.7,0,1.4,0,2.1,0,3.5.5,5.5,2.3,8.4,4,3.8,7.9,3.2,13.3,3.2q1.1,0,2.1,0c2.3,0,4.6,0,7,0,1.6,0,3.2,0,4.9,0,3.4,0,6.8,0,10.2,0,4.3,0,8.7,0,13,0,3.3,0,6.7,0,10,0,1.6,0,3.2,0,4.8,0,2.2,0,4.5,0,6.7,0q1.9,0,3.9,0c4.2-.3,7-1,10.1-3.9,1.7-3.3,1.6-6.3,1.6-9.9q0-1.1,0-2.3c0-2.5,0-5,0-7.5,0-1.7,0-3.5,0-5.2,0-3.6,0-7.3,0-10.9,0-4.6,0-9.3,0-13.9,0-3.6,0-7.1,0-10.7,0-1.7,0-3.4,0-5.1,0-2.4,0-4.8,0-7.2,0-.7,0-1.4,0-2.1,0-3.3-.5-5.5-2.1-8.5-3.3-2.8-6.1-2.8-10.3-2.7-.8,0-1.6,0-2.4,0-2.6,0-5.2,0-7.8,0-1.8,0-3.6,0-5.4,0-3.8,0-7.5,0-11.3,0-4.8,0-9.7,0-14.5,0-3.7,0-7.4,0-11.2,0-1.8,0-3.6,0-5.3,0-2.5,0-5,0-7.5,0-.7,0-1.5,0-2.2,0-3.5,0-5.3.4-8.1,2.7Z" fill="currentColor"/>
  <path d="M120.9,171.8c.9,0,1.7,0,2.6,0,2.8,0,5.6,0,8.4,0,2,0,3.9,0,5.9,0,4.1,0,8.2,0,12.3,0,5.3,0,10.5,0,15.8,0,4.1,0,8.1,0,12.2,0,1.9,0,3.9,0,5.8,0,2.7,0,5.4,0,8.1,0,.8,0,1.6,0,2.4,0,6.5,0,11.5,2.1,16.5,6.2.4.5.9,1.1,1.3,1.6.4.5.9,1,1.4,1.6,3.7,6.1,4.8,11.7,4.7,18.7,0,.8,0,1.6,0,2.4,0,2.6,0,5.3,0,7.9,0,1.9,0,3.7,0,5.6,0,3.9,0,7.7,0,11.6,0,4.9,0,9.9,0,14.8,0,3.8,0,7.6,0,11.5,0,1.8,0,3.6,0,5.5,0,2.6,0,5.1,0,7.7,0,.7,0,1.5,0,2.3,0,7-1.9,13.7-6.8,18.9-9.2,7.9-19.8,7.1-31.2,7-1.9,0-3.8,0-5.7,0-4,0-8,0-12,0-5.1,0-10.2,0-15.3,0-3.9,0-7.9,0-11.8,0-1.9,0-3.8,0-5.6,0q-19.6,0-26.9-5.7c-6.3-6.7-8.3-13.1-8.3-22.3q0-1.2,0-2.4c0-2.7,0-5.3,0-8,0-1.9,0-3.7,0-5.6,0-3.9,0-7.8,0-11.7,0-5,0-9.9,0-14.9,0-3.8,0-7.7,0-11.5,0-1.8,0-3.7,0-5.5,0-2.6,0-5.1,0-7.7q0-1.1,0-2.3c0-6.6,1.7-12.9,6.1-18,.4-.5.9-1.1,1.3-1.6,5.8-4.8,11.5-6.2,18.9-6.2ZM113.2,191.9c-1.7,3.3-1.6,6.3-1.6,9.9,0,.8,0,1.5,0,2.3,0,2.5,0,5,0,7.5,0,1.7,0,3.5,0,5.2,0,3.6,0,7.3,0,10.9,0,4.6,0,9.3,0,13.9,0,3.6,0,7.1,0,10.7,0,1.7,0,3.4,0,5.1,0,2.4,0,4.8,0,7.2,0,.7,0,1.4,0,2.1,0,3.3.5,5.5,2.1,8.5,3.3,2.8,6.1,2.8,10.3,2.7.8,0,1.6,0,2.4,0,2.6,0,5.2,0,7.8,0,1.8,0,3.6,0,5.4,0,3.8,0,7.5,0,11.3,0,4.8,0,9.7,0,14.5,0,3.7,0,7.4,0,11.2,0,1.8,0,3.6,0,5.3,0,2.5,0,5,0,7.5,0,.7,0,1.5,0,2.2,0,3.5,0,5.3-.4,8.1-2.7,1.9-3.6,2.1-6.6,2.1-10.6,0-.8,0-1.5,0-2.3,0-2.5,0-5,0-7.4,0-1.7,0-3.5,0-5.2,0-3.6,0-7.2,0-10.9,0-4.6,0-9.3,0-13.9,0-3.6,0-7.1,0-10.7,0-1.7,0-3.4,0-5.1,0-2.4,0-4.8,0-7.2,0-.7,0-1.4,0-2.1,0-3.5-.5-5.5-2.3-8.4-4-3.8-7.9-3.2-13.3-3.2-.7,0-1.4,0-2.1,0-2.3,0-4.6,0-7,0-1.6,0-3.2,0-4.9,0-3.4,0-6.8,0-10.2,0-4.3,0-8.7,0-13,0-3.3,0-6.7,0-10,0-1.6,0-3.2,0-4.8,0-2.2,0-4.5,0-6.7,0-1.3,0-2.5,0-3.9,0-4.2.3-7,1-10.1,3.9Z" fill="currentColor"/>
  <path d="M132,334.6c2,0,3.9,0,5.9,0,4.1,0,8.2,0,12.3,0,5.2,0,10.5,0,15.7,0,4,0,8.1,0,12.1,0,1.9,0,3.9,0,5.8,0q20.1,0,28.3,7.7.7.9,1.3,1.9c.5.6.9,1.3,1.4,1.9,3,5.4,3.5,10.4,3.5,16.4,0,.8,0,1.6,0,2.4,0,2.7,0,5.3,0,8,0,1.9,0,3.7,0,5.6,0,3.9,0,7.8,0,11.7,0,5,0,9.9,0,14.9,0,3.8,0,7.7,0,11.5,0,1.8,0,3.7,0,5.5,0,2.6,0,5.1,0,7.7,0,.7,0,1.5,0,2.3,0,7-1.9,13.6-6.9,18.9-9,8.1-19.1,7.1-30.5,7.1-2,0-3.9,0-5.9,0-4.1,0-8.2,0-12.3,0-5.2,0-10.5,0-15.7,0-4,0-8.1,0-12.1,0-1.9,0-3.9,0-5.8,0q-19.5.1-27.3-6.8-2.3-2.4-3.6-4.6c-.5-.7-.9-1.5-1.4-2.2-2.3-4.6-2.2-9.1-2.2-14.2,0-.8,0-1.6,0-2.4,0-2.7,0-5.3,0-8,0-1.9,0-3.7,0-5.6,0-3.9,0-7.8,0-11.7,0-5,0-10,0-14.9,0-3.8,0-7.7,0-11.5,0-1.8,0-3.7,0-5.5,0-2.6,0-5.1,0-7.7,0-.8,0-1.5,0-2.3,0-7.1,1.9-13.7,6.9-18.9,9-8.1,19.1-7.1,30.6-7ZM113.2,354.9c-1.7,3.3-1.6,6.3-1.6,9.9,0,.8,0,1.5,0,2.3,0,2.5,0,5,0,7.5,0,1.7,0,3.5,0,5.2,0,3.6,0,7.3,0,10.9,0,4.6,0,9.3,0,13.9,0,3.6,0,7.1,0,10.7,0,1.7,0,3.4,0,5.1,0,2.4,0,4.8,0,7.2,0,.7,0,1.4,0,2.1,0,3.5.5,5.5,2.3,8.4,4,3.8,7.9,3.2,13.3,3.2q1.1,0,2.1,0c2.3,0,4.6,0,7,0,1.6,0,3.2,0,4.9,0,3.4,0,6.8,0,10.2,0,4.3,0,8.7,0,13,0,3.3,0,6.7,0,10,0,1.6,0,3.2,0,4.8,0,2.2,0,4.5,0,6.7,0q1.9,0,3.9,0c4.2-.3,7-1,10.1-3.9,1.7-3.3,1.6-6.3,1.6-9.9q0-1.1,0-2.3c0-2.5,0-5,0-7.5,0-1.7,0-3.5,0-5.2,0-3.6,0-7.3,0-10.9,0-4.6,0-9.3,0-13.9,0-3.6,0-7.1,0-10.7,0-1.7,0-3.4,0-5.1,0-2.4,0-4.8,0-7.2,0-.7,0-1.4,0-2.1,0-3.5-.5-5.5-2.3-8.4-4-3.8-7.9-3.2-13.3-3.2-.7,0-1.4,0-2.1,0-2.3,0-4.6,0-7,0-1.6,0-3.2,0-4.9,0-3.4,0-6.8,0-10.2,0-4.3,0-8.7,0-13,0-3.3,0-6.7,0-10,0-1.6,0-3.2,0-4.8,0-2.2,0-4.5,0-6.7,0-1.3,0-2.5,0-3.9,0-4.2.3-7,1-10.1,3.9Z" fill="currentColor"/>
  <path d="M239,338.8q1.5,0,3.1,0c1.1,0,2.3,0,3.4,0q1.8,0,3.6,0c3.3,0,6.6,0,10,0,3.6,0,7.2,0,10.8,0,7,0,14,0,21.1,0,5.7,0,11.4,0,17.1,0,.8,0,1.6,0,2.5,0,1.6,0,3.3,0,4.9,0,15.5,0,30.9,0,46.4,0,14.2,0,28.3,0,42.5,0,14.5,0,29.1,0,43.6,0,1.6,0,3.3,0,4.9,0q1.2,0,2.4,0c5.7,0,11.4,0,17.1,0,6.9,0,13.9,0,20.8,0,3.5,0,7.1,0,10.6,0,3.8,0,7.7,0,11.5,0,1.1,0,2.3,0,3.4,0q7.5,0,10.9,3c1.6,3.3,1.9,5.1,1.3,8.6-2.2,3.3-3.2,4.7-7,6-1.6,0-3.2.1-4.8.1-1,0-2,0-3,0q-1.7,0-3.3,0c-1.2,0-2.3,0-3.5,0-3.3,0-6.5,0-9.8,0-3.5,0-7,0-10.5,0-7.7,0-15.3,0-23,0-4.8,0-9.6,0-14.4,0-13.3,0-26.5,0-39.8,0-.8,0-1.7,0-2.6,0-.9,0-1.7,0-2.6,0-1.7,0-3.4,0-5.2,0q-1.3,0-2.6,0c-13.9,0-27.7,0-41.6,0-14.2,0-28.4,0-42.7,0-8,0-16,0-24,0-6.8,0-13.6,0-20.4,0-3.5,0-6.9,0-10.4,0-3.8,0-7.5,0-11.3,0-1.1,0-2.2,0-3.3,0-5.5,0-9.6-.2-14.3-3.4-1.6-3.1-1.7-6.6-1-10,2.9-3.5,4.6-4.5,9.1-4.5Z" fill="currentColor"/>
  <path d="M239,501.8c1,0,2,0,3.1,0,1.1,0,2.2,0,3.4,0,1.2,0,2.4,0,3.6,0,3.3,0,6.6,0,9.9,0,3.6,0,7.1,0,10.7,0,7,0,14,0,21,0,5.7,0,11.4,0,17.1,0q1.2,0,2.4,0c1.6,0,3.3,0,4.9,0,15.4,0,30.8,0,46.2,0,14.1,0,28.2,0,42.3,0,14.5,0,28.9,0,43.4,0,1.6,0,3.3,0,4.9,0q1.2,0,2.4,0c5.7,0,11.4,0,17,0,6.9,0,13.8,0,20.8,0,3.5,0,7.1,0,10.6,0,3.8,0,7.7,0,11.5,0q1.7,0,3.4,0,7.5,0,11.5,3c2.2,3.3,2.5,4.8,1.8,8.6-2.2,3.3-3.2,4.7-7,6-1.6,0-3.2.1-4.8.1-1,0-2,0-3,0q-1.7,0-3.3,0c-1.2,0-2.3,0-3.5,0-3.3,0-6.5,0-9.8,0-3.5,0-7,0-10.5,0-7.7,0-15.3,0-23,0-4.8,0-9.6,0-14.4,0-13.3,0-26.5,0-39.8,0-.8,0-1.7,0-2.6,0-.9,0-1.7,0-2.6,0-1.7,0-3.4,0-5.2,0q-1.3,0-2.6,0c-13.9,0-27.7,0-41.6,0-14.2,0-28.4,0-42.7,0-8,0-16,0-24,0-6.8,0-13.6,0-20.4,0-3.5,0-6.9,0-10.4,0-3.8,0-7.5,0-11.3,0-1.1,0-2.2,0-3.3,0-5.5,0-9.6-.2-14.3-3.4-1.6-3.1-1.7-6.6-1-10,2.8-3.5,4.6-4.5,9-4.5Z" fill="currentColor"/>
  <path d="M239,175.8q1.5,0,3.1,0c1.1,0,2.3,0,3.4,0q1.8,0,3.6,0c3.3,0,6.6,0,10,0,3.6,0,7.2,0,10.8,0,7,0,14,0,21.1,0,5.7,0,11.4,0,17.1,0,.8,0,1.6,0,2.5,0,1.6,0,3.3,0,4.9,0,15.5,0,30.9,0,46.4,0,14.2,0,28.3,0,42.5,0,14.5,0,29.1,0,43.6,0,1.6,0,3.3,0,4.9,0q1.2,0,2.4,0c5.7,0,11.4,0,17.1,0,6.9,0,13.9,0,20.8,0,3.5,0,7.1,0,10.6,0,3.8,0,7.7,0,11.5,0,1.1,0,2.3,0,3.4,0q7.5,0,10.9,3c1.6,3.3,1.9,5.1,1.3,8.6q-2.9,4.6-5.8,5.6c-2.4.4-4.7.5-7.1.5q-1.5,0-3,0c-1.1,0-2.2,0-3.3,0-1.2,0-2.3,0-3.5,0-3.2,0-6.5,0-9.7,0-3.5,0-7,0-10.5,0-7.6,0-15.3,0-22.9,0-4.8,0-9.5,0-14.3,0-13.2,0-26.4,0-39.6,0q-1.3,0-2.6,0t-2.6,0c-1.7,0-3.4,0-5.1,0q-1.3,0-2.6,0c-13.8,0-27.6,0-41.4,0-14.2,0-28.3,0-42.5,0-8,0-15.9,0-23.9,0-6.8,0-13.5,0-20.3,0-3.5,0-6.9,0-10.4,0-3.7,0-7.5,0-11.2,0-1.1,0-2.2,0-3.3,0-5.5,0-9.6-.2-14.2-3.4-1.6-3.1-1.7-6.6-1-10,2.9-3.5,4.6-4.5,9.1-4.5Z" fill="currentColor"/>
  <path d="M242.4,550.8c.9,0,1.7,0,2.6,0,2.9,0,5.8,0,8.7,0,2.1,0,4.1,0,6.2,0,5.6,0,11.3,0,16.9,0,5.9,0,11.8,0,17.7,0,9.9,0,19.8,0,29.7,0,11.4,0,22.9,0,34.3,0,9.8,0,19.6,0,29.5,0,5.9,0,11.7,0,17.6,0,5.5,0,11,0,16.5,0,2,0,4.1,0,6.1,0,2.8,0,5.5,0,8.3,0q1.2,0,2.4,0c3.6,0,5.6.2,8.5,2.4,1.6,2.3,2,3.3,2,6.1q0,1,0,2c-.8,3-2,4.1-4.5,6-2.9.4-5.5.5-8.5.5-.9,0-1.7,0-2.6,0-2.9,0-5.8,0-8.7,0-2.1,0-4.1,0-6.2,0-5.6,0-11.3,0-16.9,0-5.9,0-11.8,0-17.7,0-9.9,0-19.8,0-29.7,0-11.4,0-22.9,0-34.3,0-9.8,0-19.6,0-29.5,0-5.9,0-11.7,0-17.6,0-5.5,0-11,0-16.5,0-2,0-4.1,0-6.1,0-2.8,0-5.5,0-8.3,0-.8,0-1.6,0-2.4,0-3.6,0-5.6-.2-8.5-2.4-1.6-2.3-2-3.3-2-6.1q0-1,0-2c1.8-6.6,7.2-6.6,13-6.5Z" fill="currentColor"/>
  <path d="M242.4,387.8c.9,0,1.7,0,2.6,0,2.9,0,5.8,0,8.7,0,2.1,0,4.1,0,6.2,0,5.6,0,11.3,0,16.9,0,5.9,0,11.8,0,17.7,0,9.9,0,19.8,0,29.7,0,11.4,0,22.9,0,34.3,0,9.8,0,19.6,0,29.5,0,5.9,0,11.7,0,17.6,0,5.5,0,11,0,16.5,0,2,0,4.1,0,6.1,0,2.8,0,5.5,0,8.3,0q1.2,0,2.4,0c3.6,0,5.6.2,8.5,2.4,1.6,2.3,2,3.3,2,6.1q0,1,0,2c-.8,3-2,4.1-4.5,6-2.9.4-5.5.5-8.5.5-.9,0-1.7,0-2.6,0-2.9,0-5.8,0-8.7,0-2.1,0-4.1,0-6.2,0-5.6,0-11.3,0-16.9,0-5.9,0-11.8,0-17.7,0-9.9,0-19.8,0-29.7,0-11.4,0-22.9,0-34.3,0-9.8,0-19.6,0-29.5,0-5.9,0-11.7,0-17.6,0-5.5,0-11,0-16.5,0-2,0-4.1,0-6.1,0-2.8,0-5.5,0-8.3,0-.8,0-1.6,0-2.4,0-3.6,0-5.6-.2-8.5-2.4-1.6-2.3-2-3.3-2-6.1q0-1,0-2c1.8-6.6,7.2-6.6,13-6.5Z" fill="currentColor"/>
  <path d="M242.4,224.8c.9,0,1.7,0,2.6,0,2.9,0,5.8,0,8.7,0,2.1,0,4.1,0,6.2,0,5.6,0,11.3,0,16.9,0,5.9,0,11.8,0,17.7,0,9.9,0,19.8,0,29.7,0,11.4,0,22.9,0,34.3,0,9.8,0,19.6,0,29.5,0,5.9,0,11.7,0,17.6,0,5.5,0,11,0,16.5,0,2,0,4.1,0,6.1,0,2.8,0,5.5,0,8.3,0q1.2,0,2.4,0c3.6,0,5.6.2,8.5,2.4,1.6,2.3,2,3.3,2,6.1q0,1,0,2c-.8,3-2,4.1-4.5,6-2.9.4-5.5.5-8.5.5-.9,0-1.7,0-2.6,0-2.9,0-5.8,0-8.7,0-2.1,0-4.1,0-6.2,0-5.6,0-11.3,0-16.9,0-5.9,0-11.8,0-17.7,0-9.9,0-19.8,0-29.7,0-11.4,0-22.9,0-34.3,0-9.8,0-19.6,0-29.5,0-5.9,0-11.7,0-17.6,0-5.5,0-11,0-16.5,0-2,0-4.1,0-6.1,0-2.8,0-5.5,0-8.3,0-.8,0-1.6,0-2.4,0-3.6,0-5.6-.2-8.5-2.4-1.6-2.3-2-3.3-2-6.1q0-1,0-2c1.8-6.6,7.2-6.6,13-6.5Z" fill="currentColor"/>
  <path d="M243,436.2c1.3,0,2.5,0,3.8,0,1.4,0,2.8,0,4.2,0,1.5,0,2.9,0,4.4,0,4,0,8,0,12,0,3.3,0,6.7,0,10,0,7.9,0,15.7,0,23.6,0,8.1,0,16.2,0,24.4,0,7,0,13.9,0,20.9,0,4.2,0,8.3,0,12.5,0,3.9,0,7.8,0,11.7,0,1.4,0,2.9,0,4.3,0,2,0,3.9,0,5.9,0q1.6,0,3.3,0c3.1.3,5.2.8,7.9,2.2,2.1,3.2,2.3,5.2,2.5,9-.7,3-2.1,4.1-4.5,6q-2.9.5-6.4.5t-4,0c-1.5,0-2.9,0-4.4,0-1.5,0-3.1,0-4.6,0-4.2,0-8.3,0-12.5,0-4.3,0-8.7,0-13,0-7.3,0-14.6,0-21.9,0-8.4,0-16.9,0-25.3,0-7.2,0-14.5,0-21.7,0-4.3,0-8.7,0-13,0-4.1,0-8.1,0-12.2,0-1.5,0-3,0-4.5,0-2,0-4.1,0-6.1,0-1.1,0-2.3,0-3.5,0-3.6-.6-4.7-1.7-6.9-4.5-.7-2.7-.6-5.2,0-8,3.6-4.9,7.3-5.1,13-5.1Z" fill="currentColor"/>
  <path d="M243,273.2c1.3,0,2.5,0,3.8,0,1.4,0,2.8,0,4.2,0,1.5,0,2.9,0,4.4,0,4,0,8,0,12,0,3.3,0,6.7,0,10,0,7.9,0,15.7,0,23.6,0,8.1,0,16.2,0,24.4,0,7,0,13.9,0,20.9,0,4.2,0,8.3,0,12.5,0,3.9,0,7.8,0,11.7,0,1.4,0,2.9,0,4.3,0,2,0,3.9,0,5.9,0q1.6,0,3.3,0c3.1.3,5.2.8,7.9,2.2,2.1,3.2,2.3,5.2,2.5,9-.7,3-2.1,4.1-4.5,6q-2.9.5-6.4.5t-4,0c-1.5,0-2.9,0-4.4,0-1.5,0-3.1,0-4.6,0-4.2,0-8.3,0-12.5,0-4.3,0-8.7,0-13,0-7.3,0-14.6,0-21.9,0-8.4,0-16.9,0-25.3,0-7.2,0-14.5,0-21.7,0-4.3,0-8.7,0-13,0-4.1,0-8.1,0-12.2,0-1.5,0-3,0-4.5,0-2,0-4.1,0-6.1,0-1.1,0-2.3,0-3.5,0-3.6-.6-4.7-1.7-6.9-4.5-.7-2.7-.6-5.2,0-8,3.6-4.9,7.3-5.1,13-5.1Z" fill="currentColor"/>
  <path d="M243,599.2c1.3,0,2.5,0,3.8,0,1.4,0,2.8,0,4.2,0,1.5,0,2.9,0,4.4,0,4,0,7.9,0,11.9,0,3.3,0,6.6,0,9.9,0,7.8,0,15.6,0,23.4,0,8.1,0,16.1,0,24.2,0,6.9,0,13.8,0,20.8,0,4.1,0,8.3,0,12.4,0,3.9,0,7.8,0,11.7,0,1.4,0,2.9,0,4.3,0,1.9,0,3.9,0,5.8,0q1.6,0,3.3,0c3.8.3,6.6,1.4,9.7,3.4,2,3,1.6,5.3,1.2,8.8q-1.6,2.7-4,5-2.9.6-6.4.6t-4,0c-1.5,0-2.9,0-4.4,0-1.5,0-3.1,0-4.6,0-4.2,0-8.3,0-12.5,0-4.3,0-8.7,0-13,0-7.3,0-14.6,0-21.9,0-8.4,0-16.9,0-25.3,0-8.1,0-16.2,0-24.4,0-3.5,0-6.9,0-10.4,0-4.1,0-8.1,0-12.2,0-1.5,0-3,0-4.5,0-2,0-4.1,0-6.1,0-1.1,0-2.3,0-3.5,0-3.6-.6-4.7-1.7-6.9-4.5-.7-2.7-.6-5.2,0-8,3.6-4.8,7.2-5.1,13-5.1Z" fill="currentColor"/>
</svg>