
<svg version="1.1" xmlns="http://www.w3.org/2000/svg" width="512" height="512">
<path d="M0 0 C3.75461263 0.00108622 7.50920897 -0.00385433 11.26381803 -0.00860542 C20.13221751 -0.01960927 29.00057459 -0.02018832 37.86897755 -0.01409125 C46.95148895 -0.00804234 56.03384579 -0.02040692 65.11633086 -0.04166132 C72.98462384 -0.05938226 80.85286805 -0.06526277 88.7211802 -0.06202358 C93.39012556 -0.06022919 98.0589603 -0.06266009 102.72788715 -0.07673812 C141.99073385 -0.18496219 176.6216217 4.54372709 211.5603838 23.79621148 C212.39005665 24.25173394 213.2197295 24.7072564 214.07454395 25.17658257 C214.80495899 25.58650445 215.53537403 25.99642632 216.28792286 26.41877007 C218.3233898 27.50911517 218.3233898 27.50911517 221.22298145 27.30158257 C223.10090511 25.63757335 224.80144703 23.97426663 226.51985645 22.15705132 C227.5718252 21.0768616 228.62391238 19.9967872 229.67610645 18.91681695 C231.32268612 17.20831923 232.96578208 15.49661027 234.60579395 13.78180718 C236.19339937 12.12733251 237.79343666 10.48564227 239.39485645 8.84455132 C239.87428699 8.33506448 240.35371754 7.82557763 240.84767628 7.30065179 C245.22359832 2.83181941 249.43122039 0.65689762 255.66048145 -0.13591743 C261.7272054 0.60911885 265.8332958 2.55556727 269.66048145 7.36408257 C272.08142791 11.91546191 272.64421667 15.16251288 272.22298145 20.30158257 C269.94359479 26.7694119 265.8342323 31.2593025 261.02928734 35.99584794 C259.93561022 37.09779631 259.93561022 37.09779631 258.81983861 38.22200626 C256.3730014 40.68244404 253.91216336 43.128375 251.45114613 45.57462335 C249.67674323 47.35291885 247.90321487 49.13208732 246.13048738 50.91205299 C242.27361546 54.78061637 238.4106042 58.64288508 234.54202366 62.49973702 C228.78946684 68.23490122 223.04840792 73.98147316 217.30956833 79.73035926 C207.06014027 89.99697754 196.79937499 100.25220515 186.53384751 110.50272289 C177.5519528 119.47156911 168.57399166 128.44433038 159.59990215 137.42098641 C159.00477362 138.01627536 158.40964509 138.61156431 157.79648236 139.22489232 C155.38073403 141.64130422 152.96500513 144.05773553 150.54930471 146.47419531 C127.88802779 169.14249649 105.21550851 191.79952264 82.53764633 214.45123023 C62.38199991 234.5837541 42.23524373 254.72513232 22.09627247 274.87433648 C16.93805091 280.03515997 11.77982088 285.19597499 6.62150383 290.35670304 C5.98648791 290.99201641 5.35147198 291.62732978 4.69721315 292.28189507 C-12.12481593 309.11153485 -28.9538509 325.93416579 -45.78508669 342.75459754 C-47.59555131 344.56391434 -49.4060136 346.37323345 -51.21647221 348.18255624 C-52.41751398 349.38284277 -53.61856095 350.58312409 -54.81961315 351.78340017 C-63.79474077 360.7528646 -72.76636313 369.725825 -81.73638248 378.70039773 C-91.93175385 388.90087088 -102.13256894 399.09586553 -112.34057467 409.28369562 C-118.05648187 414.9885966 -123.76822921 420.69758905 -129.47410954 426.41251902 C-133.72802285 430.67224718 -137.98968894 434.92412766 -142.25451917 439.172929 C-143.98387787 440.89822364 -145.71068377 442.62608144 -147.43474304 444.35667174 C-149.76884095 446.69885731 -152.11187359 449.03171572 -154.45748329 451.36236405 C-155.13307337 452.04469179 -155.80866345 452.72701952 -156.50472596 453.43002385 C-161.17726884 458.04464825 -164.89583556 460.56865633 -171.65201855 460.67658257 C-176.88242435 460.54426576 -179.64029404 459.52822769 -183.77701855 456.30158257 C-187.53709985 451.48096551 -188.22041478 447.87706121 -188.2106123 441.82892632 C-187.14209187 435.60070365 -183.40721904 431.51083373 -179.0152998 427.24689507 C-178.46464352 426.70048364 -177.91398724 426.1540722 -177.3466444 425.59110284 C-175.60123579 423.86237055 -173.84564864 422.14441549 -172.08951855 420.42658257 C-170.89807295 419.25019806 -169.70731035 418.07312137 -168.51725292 416.89533257 C-165.61168046 414.02268262 -162.69693762 411.15964568 -159.77701855 408.30158257 C-160.15286083 407.62136041 -160.52870312 406.94113824 -160.91593456 406.24030328 C-177.96980688 375.20327477 -187.93503277 344.30651681 -187.92228222 308.71979547 C-187.92527869 307.04638874 -187.92868234 305.37298271 -187.93245983 303.69957757 C-187.94126345 299.16957991 -187.94363667 294.63960117 -187.94427562 290.10959578 C-187.94498923 287.26653515 -187.94712963 284.42347923 -187.94977283 281.58041978 C-187.95902068 271.62362007 -187.96310922 261.6668337 -187.96232128 251.71002984 C-187.96172359 242.4950667 -187.97221591 233.28016268 -187.98806494 224.06521446 C-188.00125245 216.10800177 -188.0065004 208.15080811 -188.00586587 200.19358462 C-188.00561375 195.46222435 -188.00830218 190.73091645 -188.01904392 185.99956727 C-188.12183965 137.24046263 -186.86401019 86.0737453 -154.77701855 46.30158257 C-153.85662792 45.13175836 -153.85662792 45.13175836 -152.91764355 43.93830132 C-129.20555277 15.41285879 -89.26777767 4.7831394 -53.86575222 1.45162511 C-35.92262487 -0.06043975 -17.99267351 -0.0103438 0 0 Z M-129.0465498 66.62970757 C-152.75015061 94.1202742 -154.91485303 133.62938078 -154.93815136 168.2007525 C-154.9427947 169.83551922 -154.94782132 171.47028489 -154.95319653 173.10504937 C-154.96617312 177.49999158 -154.97273574 181.89491862 -154.97720718 186.28987694 C-154.9801608 189.04816326 -154.98426952 191.80644563 -154.98871136 194.56472993 C-155.00234485 203.2315684 -155.01203278 211.89839761 -155.01591325 220.56524605 C-155.02038979 230.50253446 -155.03793658 240.43968505 -155.06691384 250.37693161 C-155.08865416 258.10572325 -155.098624 265.83447645 -155.09995437 273.56329829 C-155.10099321 278.15803632 -155.10670202 282.7526441 -155.12477398 287.34734941 C-155.28476197 319.55074637 -155.28476197 319.55074637 -149.02701855 351.05158257 C-148.774604 351.9108233 -148.52218945 352.77006402 -148.26212597 353.65534234 C-145.11289588 364.00664964 -140.64949782 373.65966741 -135.77701855 383.30158257 C-131.80582098 381.70006934 -129.13640493 378.93729886 -126.17794704 375.94860673 C-125.34287669 375.1169979 -125.34287669 375.1169979 -124.49093622 374.2685889 C-122.6164446 372.39941416 -120.74920407 370.52315848 -118.88181591 368.64688897 C-117.52998096 367.29592574 -116.17770677 365.94540191 -114.82503009 364.59528148 C-111.10124069 360.8759762 -107.38373645 357.15044304 -103.66719842 353.42389369 C-99.66129717 349.40937557 -95.64963853 345.40061821 -91.63866711 341.39116693 C-84.68751375 334.44106354 -77.74003889 327.48730038 -70.79503155 320.53105569 C-60.75364505 310.47343232 -50.7067568 300.42131979 -40.65850636 290.37055452 C-24.3570199 274.06468811 -8.05999913 257.75436724 8.23421192 241.44123101 C24.06487263 225.59220475 39.89763035 209.74527817 55.73323536 193.90119195 C56.22126554 193.41289872 56.70929572 192.92460549 57.21211469 192.42151549 C62.11306909 187.51792408 67.01406619 182.61437535 71.91509458 177.71085789 C113.02418198 136.58088452 154.12605923 95.44371124 195.22298145 54.30158257 C192.71939517 51.73388186 190.72145231 49.79508354 187.4143877 48.37189507 C186.67833302 48.05438287 185.94227833 47.73687066 185.18391895 47.40973687 C184.39243458 47.08529595 183.6009502 46.76085504 182.78548145 46.42658257 C181.95145802 46.08216119 181.11743458 45.7377398 180.2581377 45.3828814 C174.16965616 42.93831529 168.01792706 40.83477701 161.72298145 38.98908257 C160.9554253 38.75914605 160.18786915 38.52920953 159.39705372 38.29230523 C156.6877587 37.53765005 153.96784073 36.91587708 151.22298145 36.30158257 C149.55154072 35.91904824 149.55154072 35.91904824 147.8463335 35.52878594 C131.04891002 32.12699104 113.77839407 32.8794215 96.72597694 32.93153763 C92.08433357 32.94300654 87.44269893 32.93873267 82.80104542 32.9367907 C75.00773449 32.93591219 67.21451126 32.9468919 59.42122364 32.96540093 C50.47409419 32.98653179 41.52709325 32.990082 32.5799439 32.98383898 C23.89870149 32.97809669 15.2175033 32.98384959 6.53626728 32.99501252 C2.87661623 32.99959772 -0.78300723 33.00055924 -4.44266033 32.99842668 C-48.31855202 32.98340182 -96.30322755 33.04103278 -129.0465498 66.62970757 Z " fill="#000000" transform="translate(213.7770185470581,25.69841742515564)"/>
<path d="M0 0 C4.98669007 2.49334503 8.49675474 5.99350949 11 11 C12.2444473 20.10036947 12.14892219 29.30447043 12.14526367 38.46948242 C12.14826344 39.98732077 12.15166782 41.50515837 12.15544128 43.022995 C12.16420876 47.11474572 12.1666165 51.20647548 12.16725707 55.2982347 C12.16797245 57.8687656 12.17011606 60.43929133 12.17275429 63.00982094 C12.18198834 72.01883908 12.18609218 81.02784252 12.18530273 90.03686523 C12.18470457 98.36520734 12.19520987 106.69348413 12.2110464 115.02180976 C12.22424151 122.22408443 12.22948158 129.42633811 12.22884732 136.62862474 C12.22859554 140.90663188 12.23126499 145.18458107 12.24202538 149.46257591 C12.3537324 197.27795778 10.45775899 248.74155717 -22 287 C-22.77730469 287.99580078 -22.77730469 287.99580078 -23.5703125 289.01171875 C-45.41488235 316.07044471 -83.74990452 326.39453458 -116.71426392 330.32350922 C-135.32676907 332.26764538 -153.92938609 332.29838097 -172.6163559 332.26865101 C-176.89935022 332.26348472 -181.18233724 332.26831124 -185.46533203 332.27142334 C-192.64943001 332.27503275 -199.83348649 332.27034442 -207.01757812 332.26074219 C-215.25019979 332.24986356 -223.48272229 332.25339131 -231.71534157 332.264395 C-238.86268253 332.27355523 -246.00999414 332.27471105 -253.1573391 332.26951766 C-257.39155062 332.26644535 -261.625716 332.26585424 -265.85992432 332.27259064 C-329.31674251 332.35942386 -329.31674251 332.35942386 -338.66015625 323.6328125 C-342.27495772 319.22760255 -342.43450616 315.31277166 -342.30859375 309.7578125 C-341.82525409 305.43834664 -340.72579964 303.42472262 -338 300 C-330.54008181 294.06251409 -321.71012106 295.7125096 -312.70160675 296.69794083 C-296.2765838 298.48379652 -279.81554129 298.2945811 -263.31863976 298.26865101 C-258.99599353 298.26349596 -254.67335468 298.26830828 -250.35070801 298.27142334 C-243.09918669 298.27503586 -235.84770645 298.27033599 -228.59619141 298.26074219 C-220.27836644 298.24986294 -211.96063962 298.25339046 -203.64281702 298.264395 C-196.43015548 298.27354609 -189.21752303 298.27471538 -182.00485754 298.26951766 C-177.72820274 298.26644047 -173.45159366 298.26586853 -169.17494202 298.27259064 C-105.14045922 298.41711702 -105.14045922 298.41711702 -50.42529297 268.44433594 C-29.23230435 246.96819331 -24.0211983 214.32512889 -22.3215332 185.47607422 C-22.10766592 182.17655518 -21.78473143 178.90023134 -21.42260742 175.61376953 C-17.83469094 148.25873284 -17.83469094 148.25873284 -26.7250061 123.2901001 C-35.08323166 113.29755811 -50.27804074 96.92787857 -64 95 C-71.97256013 94.35625291 -78.8373908 94.59586945 -85.19882965 99.79817581 C-91.52044169 105.55122901 -97.6093004 111.50081028 -103.61523438 117.58105469 C-104.63468868 118.60900223 -105.65441642 119.63667866 -106.6743927 120.66410828 C-108.84995753 122.8562373 -111.02409149 125.04977177 -113.19721985 127.2443161 C-116.64066797 130.7207073 -120.09034781 134.19087021 -123.54138184 137.659729 C-124.72855411 138.85316052 -125.91572604 140.04659238 -127.10289764 141.24002457 C-127.69685302 141.83709607 -128.29080839 142.43416757 -128.90276241 143.04933214 C-136.92110979 151.11051412 -144.93475637 159.17628655 -152.93408203 167.25634766 C-158.35245932 172.72931383 -163.77977389 178.19324439 -169.21735811 183.64713025 C-172.08596454 186.5250713 -174.94986828 189.40735842 -177.80278015 192.30086517 C-180.48430475 195.02044828 -183.17747237 197.72794763 -185.87970543 200.42695045 C-186.86360223 201.41379738 -187.84326988 202.40488375 -188.81810951 203.40067863 C-197.33792382 212.09529626 -205.58864937 218.07139811 -218.0625 218.3125 C-227.8230525 218.32304688 -235.23460467 215.76211036 -242.36328125 208.98046875 C-245.6854489 204.9605666 -247.12262343 200.85335298 -246.8984375 195.63671875 C-245.96033636 190.1644621 -243.94817962 186.85417534 -240 183 C-236.70406032 180.90779481 -233.99518255 180.70227169 -230.125 180.6875 C-228.61292969 180.66236328 -228.61292969 180.66236328 -227.0703125 180.63671875 C-223.52070959 181.05670993 -221.14186263 182.3471213 -218 184 C-217.44084082 183.43531006 -216.88168163 182.87062012 -216.30557823 182.28881836 C-202.65703102 168.50738 -188.99161563 154.74287464 -175.30756187 140.99668884 C-168.69026968 134.34854628 -162.0786657 127.69493128 -155.48046875 121.02783203 C-149.7249981 115.21228848 -143.95882094 109.40760782 -138.17989695 103.61536598 C-135.12440227 100.5520946 -132.07428823 97.4838897 -129.03696823 94.40258789 C-126.16913317 91.49357007 -123.28702662 88.59944858 -120.39406776 85.71542168 C-119.34326103 84.6629845 -118.29745669 83.60552072 -117.25754738 82.54231453 C-103.88084976 68.88118377 -88.59743153 61.05851161 -69.3125 60.5625 C-50.25369519 61.20178905 -36.09396685 68.74551167 -23 82 C-22.67 82.33 -22.34 82.66 -22 83 C-22.00888245 82.14079956 -22.01776489 81.28159912 -22.0269165 80.3963623 C-22.107263 72.27559813 -22.168066 64.1549686 -22.20724869 56.0338974 C-22.22807062 51.85933899 -22.25628851 47.68511067 -22.30175781 43.51074219 C-22.34540966 39.47771487 -22.36917763 35.44500386 -22.37950897 31.41175842 C-22.38686585 29.87764003 -22.40123192 28.34353778 -22.42292023 26.80955505 C-22.62636468 11.81579652 -22.62636468 11.81579652 -18 5 C-12.5585873 -0.17597793 -7.26297132 -0.81580957 0 0 Z " fill="#000000" transform="translate(474,154)"/>
<path d="M0 0 C14.1506699 11.03492607 21.72961883 24.4944184 24.5546875 41.9921875 C26.35466357 58.02322437 21.12174706 73.68777167 11.67578125 86.55078125 C7.03645289 92.10860291 1.69197791 96.19858728 -4.4453125 99.9921875 C-5.05632812 100.38148438 -5.66734375 100.77078125 -6.296875 101.171875 C-19.7896033 108.83954879 -36.10400783 109.59139335 -50.859375 106.08984375 C-61.83315217 102.73076817 -70.49776626 97.18993427 -78.4453125 88.9921875 C-79.01765625 88.42886719 -79.59 87.86554688 -80.1796875 87.28515625 C-89.79423217 77.10067723 -94.03508269 62.89488118 -93.8828125 49.1796875 C-93.87523926 48.21699951 -93.86766602 47.25431152 -93.85986328 46.26245117 C-93.47208954 29.43391981 -86.43630798 15.6347267 -74.4453125 3.9921875 C-53.90635839 -14.2646606 -22.43513799 -15.51153457 0 0 Z M-54.8828125 31.3671875 C-60.54391414 38.87255738 -61.59824956 45.66891766 -60.4453125 54.9921875 C-58.2392868 62.35581959 -53.87873226 67.83414241 -47.4453125 71.9921875 C-40.62111999 75.28095497 -34.25245987 75.96473951 -26.9453125 73.8046875 C-18.12248702 70.53919352 -13.43390695 65.55829638 -9.4453125 56.9921875 C-7.60762977 49.59717505 -8.03639397 42.82142562 -11.4453125 35.9921875 C-15.52288551 30.15235305 -20.34497924 24.75566896 -27.4453125 22.9921875 C-38.22774463 21.65083231 -47.31609088 23.17144746 -54.8828125 31.3671875 Z " fill="#000000" transform="translate(205.4453125,122.0078125)"/>
</svg>
