<?xml version="1.0" encoding="UTF-8"?>
<svg id="Layer_1" xmlns="http://www.w3.org/2000/svg" version="1.1" viewBox="0 0 612 792">
  <!-- Generator: Adobe Illustrator 29.5.1, SVG Export Plug-In . SVG Version: 2.1.0 Build 141)  -->
  <path d="M240,232.2c.2,0,.4.2.6.3,2,1.6,2.1,1.7,4.2,3.8.8.8,1.5,1.6,2.3,2.5,2.5,2.8,5,5.6,7.5,8.5,2.5,2.8,5.1,5.4,7.8,8,2.5,2.6,4.9,5.3,7.3,8.1,2.2,2.5,4.6,4.8,7,7.2,2.5,2.5,4.7,5.2,7,7.8,2.2,2.5,4.6,4.8,7,7.2,2.5,2.6,4.9,5.3,7.2,8,1.2,1.4,2.4,2.7,3.7,4s1.3.7,1.9.3c6.3-3.2,10.6-9.2,15.2-14.5,2.2-2.5,4.6-4.8,7-7.2,1.9-1.9,3.7-3.9,5.4-6s4.8-5.3,7.3-7.8,4.4-4.5,6.4-7c3-3.5,6.3-6.8,9.6-10,2.6-2.6,5-5.4,7.4-8.3l1.5-1.7s0,0,0-.1l1-1.4c.1-.2.3-.3.4-.4,2.8-1.9,4.9-1.5,8.2-1.1s.3,0,.5.1c2.9,1.2,5.5,2.8,8.2,4.4,1.6.9,3.2,1.9,4.8,2.8.8.5,1.6.9,2.4,1.4,3.2,1.8,6.4,3.4,9.7,5,7.9,3.9,15.6,8,23.3,12.1,10.1,5.4,20.2,10.8,30.3,16.2,13.9,7.3,27.7,14.7,41.5,22.1,3.7,2,7.4,3.9,11.1,5.9,1.3.7,2.5,1.4,3.8,2,2.4,1.3,4.8,2.5,7.1,3.8,2.1,1.1,4.3,2.3,6.4,3.5,2.1,1.1,4.1,2.2,6.2,3.3,1,.5,2,1,3,1.6.8.4,1.7.9,2.5,1.3s.1,0,.2.1c2.2,1.4,3.5,2.8,4.9,4.9s.3.7.3,1c-.3,3.4-2.5,5.6-4.7,8.2-.8,1-1.6,1.9-2.5,2.9-3.6,4.3-7.3,8.5-11,12.7-3.3,3.7-6.4,7.5-9.6,11.4-3.5,4.4-7.2,8.5-11,12.7-3.1,3.5-6,7.1-9,10.8-3.3,4-6.8,7.9-10.4,11.7-.5.6-.6,1.5-.1,2.1,3.9,5.3,8.1,10.1,12.6,14.9,4,4.3,7.7,8.7,11.3,13.2,2.5,3,5.1,5.9,7.8,8.7,4.3,4.6,8.3,9.4,12.2,14.3,3.3,3.9,6.7,7.6,10.2,11.3,2.4,2.8,3.8,5,4.4,8.6s0,.5,0,.7c-.7,3.3-2.5,4.1-5.3,6.1s0,0-.1,0c-1.8,1.1-3.6,2.1-5.5,3.1-1.1.6-2.1,1.1-3.2,1.7-1.1.6-2.3,1.2-3.4,1.8-2.3,1.3-4.7,2.5-7,3.8-1.2.6-2.3,1.2-3.5,1.9-5.1,2.7-10.2,5.6-15.2,8.4-3.9,2.2-7.9,4.4-11.8,6.5-1,.5-2,1.1-3,1.6-.5.3-.9.5-1.4.8s-.9.9-.9,1.5v2.5c0,10.8-.2,21.5-.3,32.3,0,5.5,0,11.1-.1,16.6,0,5.3,0,10.7-.1,16,0,2,0,4.1,0,6.1,0,2.9,0,5.7,0,8.6q0,1.3,0,2.6c-.1,7.1-.1,7.3-2.1,10.1s-.3.3-.4.4c-1.8,1.3-1.9,1.3-4.4,2.6-1,.5-1.9,1-2.9,1.5-1,.5-2.1,1.1-3.1,1.6-2.2,1.2-4.4,2.3-6.6,3.5-1.1.6-2.2,1.2-3.4,1.8-4.9,2.6-9.6,5.3-14.4,8.1-9.5,5.4-19.1,10.6-28.8,15.7-8.2,4.4-16.4,8.8-24.4,13.4-9.8,5.6-19.7,10.9-29.7,16.2-8.9,4.7-17.7,9.5-26.5,14.5-.9.5-1.8,1-2.8,1.6-3.3,1.9-6.6,3.8-10,5.7-2.1,1.2-4.2,2.3-6.2,3.5-1.1.6-2.2,1.2-3.3,1.8s-.1,0-.2,0c-4.1,1.7-7.2,1.9-11.4.3s-.2,0-.2-.1c-.8-.4-1.6-.9-2.4-1.4-1-.5-1.9-1-2.9-1.6-1-.6-2-1.1-3.1-1.7q-1.6-.9-3.2-1.8c-2.2-1.2-4.4-2.4-6.6-3.7-4.7-2.6-9.5-5.2-14.2-7.8-1.8-1-3.6-2-5.4-3-3.8-2.1-7.6-4.1-11.5-6.2-11-5.9-21.9-12-32.8-18.2-6.6-3.8-13.3-7.4-20.1-10.9-7-3.6-13.8-7.5-20.7-11.5-5.9-3.4-11.9-6.6-17.9-9.8q-1.1-.6-2.2-1.2c-3.6-1.9-7.2-3.8-10.8-5.6-1.3-.7-2.7-1.4-4-2.1-.6-.3-1.2-.6-1.8-.9-4-2.1-7.4-4.3-9.6-8.4s-.2-.5-.2-.7c-.1-2.8-.2-5.5-.2-8.3,0-.9,0-1.8,0-2.7,0-3,0-6,0-8.9,0-2.1,0-4.1,0-6.2,0-5.4-.1-10.9-.2-16.3,0-5.5-.1-11.1-.2-16.6-.1-10.5-.2-21.1-.3-31.6s-.3-1.2-.9-1.5-.9-.5-1.3-.7c-2.8-1.5-5.5-3-8.3-4.4-1.8-.9-3.5-1.9-5.3-2.8-7.4-4-14.9-8-22.3-12-.9-.5-1.8-1-2.8-1.5-15.2-8.3-15.8-8.6-18.9-11.6s-.4-.6-.5-.9c-.5-3.7,0-5.2,2.2-8.5s0-.1.1-.2c1-1.1,2-2.2,2.9-3.2,1.1-1.2,2.2-2.5,3.3-3.7q.9-1,1.7-1.9c2.8-3.1,5.5-6.2,8.2-9.4,1.1-1.3,2.2-2.5,3.3-3.8,2.7-3.1,5.4-6.3,8.2-9.4,1.1-1.2,2.2-2.5,3.2-3.7,2.8-3.2,5.5-6.4,8.3-9.6,5.5-6.4,11-12.7,16.7-19s.6-1.5.1-2.1c-3.7-5-7.7-9.7-12-14.3-3.9-4.2-7.5-8.5-11.1-13-2.2-2.6-4.4-5.1-6.7-7.6-3.9-4.3-7.6-8.7-11.2-13.3-2.2-2.7-4.6-5.3-6.9-7.9-1.4-1.6-2.9-3.2-4.3-4.8-.6-.7-1.3-1.4-1.9-2.2-.6-.7-1.1-1.3-1.7-2l-1.3-1.5c-.1-.1-.2-.3-.3-.5-1.4-3.4-1.2-5,0-8.3s.3-.6.6-.8c3.7-2.6,7.7-4.5,11.8-6.4,1.2-.6,2.5-1.2,3.7-1.8,1.9-.9,3.8-1.9,5.7-2.8,5.7-2.8,11.2-5.8,16.7-8.8,7.4-4.1,14.8-8,22.2-11.9,7.5-3.9,15-7.9,22.4-11.9,8.9-4.9,17.8-9.6,26.8-14.2,6.8-3.5,13.6-7.2,20.3-10.9,2.7-1.5,5.4-2.9,8.1-4.4,2.1-1.1,4.1-2.3,6.2-3.4,3.4-1.9,6.8-3.7,10.2-5.5q1.6-.9,3.2-1.8c1-.5,2-1.1,3-1.6l2.5-1.4c0,0,.2,0,.3-.1,3.1-1,5.1-.7,8.1,0ZM229,246.4c-.9.5-1.7,1-2.6,1.5-.9.5-1.9,1.1-2.8,1.6-2,1.1-4,2.2-6,3.4-1,.6-2.1,1.2-3.1,1.7-4.8,2.7-9.7,5.2-14.6,7.7-7.6,3.9-15,7.9-22.5,12-7.5,4.1-15,8.1-22.5,12-8.2,4.3-16.3,8.6-24.4,13.1-5.9,3.2-11.9,6.4-17.8,9.6-.8.4-1.5.8-2.3,1.2-3.8,2-7.7,4-11.5,6-1.4.7-2.8,1.5-4.3,2.2-.6.3-1.3.7-2,1-3.2,1.7-6.1,3.5-8.8,5.8s-.9,1.7-.2,2.4c5.8,6.7,11.6,13.5,17.4,20.2,4.7,5.4,9.3,10.8,14,16.2,2.7,3.1,5.4,6.3,8.1,9.4.6.7,1.2,1.4,1.8,2.1,1.1,1.3,2.3,2.6,3.4,3.9,2.3,2.6,4.5,5.2,6.6,8s1.2.8,1.9.6c4.8-1.5,9-3.7,13.5-6.1,1.7-.9,3.4-1.8,5.1-2.7.9-.5,1.7-.9,2.6-1.4,4.1-2.2,8.2-4.3,12.3-6.4.8-.4,1.6-.8,2.4-1.2,1.7-.8,3.3-1.7,5-2.5,4.5-2.3,8.9-4.6,13.4-6.9.9-.5,1.8-.9,2.7-1.4,8.3-4.2,16.5-8.5,24.8-12.7q1-.5,2-1c2.7-1.4,5.3-2.7,8-4.1,4.8-2.5,9.6-5,14.4-7.4,16.6-8.5,33.1-17.1,49.7-25.7s1.2-1.8.5-2.6c-3.7-4.3-7.4-8.5-11.3-12.6-4.3-4.6-8.6-9.2-12.8-13.8-4.7-5.1-9.4-10.3-14.2-15.3-2.9-3.1-5.8-6.3-8.7-9.5-.5-.6-1.1-1.2-1.6-1.8-1-1.1-2-2.3-3-3.4-4.2-4.7-6.7-6-12.3-2.8ZM368.7,245.7c0,0-.1.1-.2.2l-1.9,1.9c-.7.7-1.4,1.5-2.2,2.2-2.4,2.6-4.7,5.2-6.9,7.8-2.9,3.3-5.9,6.5-8.9,9.7-5.2,5.6-10.4,11.2-15.6,16.8-1.9,2-3.7,4-5.6,6-.5.5-1,1-1.5,1.6-1.3,1.4-2.7,2.9-4,4.3-2.6,3-5.1,6.2-7.4,9.4s-.3,2,.6,2.5h0c1.8.9,3.5,1.8,5.3,2.7,2.1,1.1,4.1,2.2,6.2,3.2,5.2,2.7,10.5,5.5,15.7,8.2,10.2,5.4,20.5,10.6,30.8,15.7,5.8,2.9,11.5,5.9,17.3,8.9,9.1,4.8,18.2,9.5,27.4,14.2,4.4,2.3,8.9,4.5,13.3,6.8q1.3.7,2.7,1.4c8.3,4.2,16.5,8.5,24.8,12.8.6.3,1.2.6,1.9,1,3,1.6,6.1,3.1,9.1,4.7s1.3.2,1.8-.2c3.2-2.6,5.8-5.2,8.4-8.4,3-3.7,6-7.3,9.2-10.9,3.8-4.2,7.4-8.5,11-12.9,2.9-3.6,6-7.1,9-10.6,5-5.7,9.8-11.5,14.6-17.3s.5-1.7-.1-2.3c-2.2-2.1-4.5-3.4-7.4-4.8-1.1-.6-2.2-1.1-3.3-1.7-1.2-.6-2.4-1.2-3.6-1.8-2.5-1.3-4.9-2.5-7.4-3.8-.6-.3-1.2-.6-1.9-1-5.6-2.9-11.1-5.9-16.6-8.9-7.4-4.1-14.8-8-22.2-11.9-8.5-4.4-16.9-8.9-25.2-13.5-6.5-3.6-13.1-7.1-19.8-10.5-9.6-5-19.1-10.1-28.6-15.3-.8-.4-1.6-.9-2.5-1.3-1.7-.9-3.3-1.9-4.9-2.8-.8-.5-1.6-.9-2.4-1.4l-2.1-1.2s-.1,0-.2,0c-2.7-1.3-4.2-1.4-6.5.5ZM297.3,317.2c-.8.4-1.6.9-2.5,1.3-.9.5-1.8,1-2.8,1.5-2.1,1.1-4.2,2.2-6.2,3.3-.6.3-1.1.6-1.7.9-7.4,3.9-14.9,7.7-22.3,11.5-4.2,2.2-8.5,4.3-12.7,6.5-.8.4-1.7.9-2.5,1.3-8.5,4.3-16.9,8.7-25.4,13.1-9.4,4.9-18.9,9.7-28.3,14.6-14.7,7.6-29.4,15.1-44.1,22.8s-1.2,2.2-.2,2.9c2.1,1.5,4.3,2.8,6.6,4,1,.5,1.9,1,2.9,1.5,1,.5,2,1.1,3.1,1.7,8.2,4.4,16.3,8.8,24.3,13.4,9.5,5.4,19.1,10.6,28.8,15.7,9.4,5,18.8,10.2,28.1,15.5,6.6,3.8,13.4,7.4,20.1,10.9,5.4,2.8,10.8,5.7,16.1,8.7,1.5.8,3,1.6,4.4,2.5,2.2,1.2,4.3,2.4,6.5,3.6,2.1,1.2,4.1,2.3,6.2,3.5.6.4,1.2.7,1.9,1.1,3,1.7,3.1,1.8,6.2,2s.5,0,.7-.1c2.9-1.1,5.5-2.5,8.2-3.9q.9-.5,1.9-1c2-1.1,4-2.1,6-3.2,1.4-.7,2.8-1.5,4.1-2.2,7.8-4.2,15.5-8.4,23.2-12.7,6-3.4,12.1-6.7,18.2-10,8.1-4.4,16.1-8.8,24.1-13.4,7.6-4.3,15.2-8.5,23-12.5,7.4-3.8,14.5-7.9,21.7-12,7.6-4.3,15.3-8.5,23.1-12.5,1.1-.6,1.2-2.2.2-2.9-2.5-1.7-5.1-3.2-7.8-4.6-.6-.3-1.2-.6-1.8-.9-2-1-4.1-2.1-6.1-3.1-1.5-.7-2.9-1.5-4.4-2.2-4-2.1-8.1-4.1-12.1-6.2-4.6-2.4-9.3-4.7-13.9-7.1-1.9-1-3.9-2-5.8-3-1-.5-1.9-1-2.9-1.5-2.9-1.5-5.9-3-8.8-4.5-11.2-5.7-22.3-11.4-33.4-17.2-6.3-3.3-12.5-6.5-18.8-9.7q-1.2-.6-2.4-1.2c-3.9-2-7.7-4-11.6-5.9-1.4-.7-2.8-1.5-4.3-2.2-.7-.3-1.4-.7-2.1-1.1-4.9-2.5-9.7-5.2-14.4-7.9s-.1,0-.2,0c-3.9-1.8-6.6-1-10.2,1ZM136.1,403.2c-.4,0-.9.2-1.2.5-1.8,2-3.6,4-5.3,6.1-1.2,1.4-2.4,2.8-3.5,4.2-.6.7-1.2,1.4-1.8,2.2-2.8,3.2-5.6,6.5-8.4,9.7-4.7,5.4-9.3,10.7-13.9,16.1-2.7,3.1-5.4,6.3-8.1,9.4-.6.7-1.2,1.4-1.8,2.1-1.1,1.3-2.3,2.6-3.4,3.9-.5.6-1,1.2-1.6,1.8l-1.3,1.5s0,0-.1.1c-1,1.3-1.8,2.6-2.5,4.1s0,1.8.7,2.2.4.2.6.3c14.9,8,29.8,16.1,44.5,24.5,4.1,2.3,8.2,4.7,12.4,7,3.9,2.2,7.7,4.3,11.6,6.5,9.7,5.5,19.4,11,29.4,16.1,6.4,3.3,12.6,6.8,18.8,10.4,2.9,1.6,5.8,3.3,8.6,4.9,1.8,1,3.6,2,5.3,3,2.4,1.3,4.7,2.6,7.1,4,.7.4,1.4.8,2.1,1.2,2,1.1,2.1,1.2,4.6,2.1s.8.2,1.2,0c2.6-1.1,4.5-2.6,6.6-4.6.6-.6,1.2-1.1,1.8-1.7q1-.9,1.9-1.8c1.4-1.3,2.7-2.6,4.1-3.8.7-.6,1.3-1.3,2-1.9,2.7-2.5,5.3-5,8-7.4,4.1-3.8,8.3-7.6,12.4-11.4,8.6-7.9,17.2-15.9,26-23.6s.7-2-.1-2.6c-2.8-2-5.7-3.6-8.9-5.3-.6-.3-1.3-.7-1.9-1-2-1.1-4-2.1-6.1-3.2-8.4-4.4-16.8-8.9-25-13.8-2.9-1.7-5.8-3.2-8.8-4.6-6.4-3.1-12.5-6.6-18.6-10.1-7.8-4.4-15.6-8.7-23.6-12.8-7.7-3.9-15.2-8-22.7-12.3-8.3-4.8-16.8-9.4-25.2-14-1.3-.7-2.5-1.4-3.8-2-1.8-1-3.5-1.9-5.3-2.8-1-.5-2-1.1-3.1-1.7-2-1.2-2.2-1.3-3.7-1.2ZM465.3,405.5c-.9.5-1.7,1-2.6,1.5-1,.6-1.9,1.1-2.9,1.7-9.7,5.6-19.5,10.9-29.4,16.1-2.8,1.5-5.5,2.9-8.3,4.4q-1,.5-2,1.1c-8.4,4.4-16.7,9-25,13.5-4.9,2.7-9.8,5.3-14.7,8-8.5,4.6-17,9.2-25.5,13.9-5.1,2.8-10.2,5.6-15.4,8.3q-.9.5-1.8,1c-2.9,1.5-5.7,3.1-8.6,4.6-4.7,2.5-9.4,5.1-14,7.7s-1.1,1.8-.5,2.6c4,4.7,8.3,9,12.8,13.2.8.7,1.5,1.4,2.3,2.1,5.2,4.8,10.4,9.6,15.6,14.4,3.5,3.2,7,6.5,10.5,9.8,6.2,5.8,12.5,11.6,18.8,17.3s1.1.6,1.7.4c4-1.3,7.5-2.9,11.1-4.9.6-.3,1.1-.6,1.7-1,1.9-1,3.7-2.1,5.6-3.1,2.6-1.5,5.2-2.9,7.9-4.4q1-.5,2-1.1c6-3.3,12.1-6.6,18.1-9.9,8.7-4.7,17.3-9.5,25.8-14.4,8.3-4.7,16.7-9.2,25.1-13.7,8.2-4.4,16.4-9,24.5-13.6,8.4-4.8,16.9-9.3,25.5-13.7s1.2-1.7.6-2.5c-3-4.1-6.1-8-9.6-11.7-3.4-3.6-6.6-7.3-9.7-11.2-3.1-3.8-6.2-7.4-9.5-11-3.3-3.6-6.4-7.2-9.5-11-3.2-4-6.5-7.9-9.9-11.7-.8-.9-1.6-1.8-2.5-2.8-3.3-3.2-4.6-1.9-8.2.2ZM277,520c-4.9,4.6-9.8,9.1-14.7,13.6-2.6,2.4-5.3,4.8-7.9,7.2-1.1,1-2.2,2-3.3,3-2.6,2.4-5.3,4.9-7.9,7.4q-1.4,1.4-2.9,2.7c-.8.8-1.6,1.6-2.4,2.4s-.1.1-.2.2c-2.9,2.1-4.6,2.5-8.1,2.8s-.5,0-.7,0c-2.4-.8-2.5-.9-5.1-2.4-1-.6-2.1-1.1-3.1-1.7-1.1-.6-2.2-1.3-3.3-1.9-1.2-.6-2.3-1.3-3.5-1.9-3.5-2-7-3.9-10.6-5.9q-1.5-.8-3-1.7c-3.7-2.1-7.4-4.2-11.1-6.3-9-5.1-18.1-10-27.2-14.8-6-3.2-12-6.5-17.7-10.1-.8-.5-1.3-.8-1.7-1-1.1-.4-2.2.5-2.2,1.6v78.3c0,.6.3,1.2.9,1.5,9.5,5.4,19,10.6,28.7,15.8,8.6,4.6,17.2,9.3,25.7,14.1,9.8,5.6,19.8,10.9,29.8,16.2,8.5,4.5,17,9.1,25.4,13.9,9.5,5.4,19.1,10.6,28.8,15.8.7.4,1.4.8,2.2,1.2,2,1.1,4.1,2.2,6.1,3.2.6.3,1.2.7,1.9,1,1.8.9,3.5,1.8,5.3,2.5s2.3-.4,2.3-1.6v-170.3c0-1.2-1.3-2.1-2.4-1.5-5.7,2.9-14.5,13.8-17.9,17ZM309.4,505.1v169.4c0,1.3,1.3,2.1,2.4,1.5,9.4-4.7,18.8-9.5,28.1-14.5q1-.5,2-1c9.3-5,18.5-10,27.6-15.3,8.9-5.1,17.9-9.8,27-14.6,9.6-5.1,19.1-10.3,28.6-15.7,8.2-4.7,16.5-9,24.9-13.3,1-.5,2-1,3-1.5.9-.4,1.7-.9,2.6-1.3.9-.5,1.8-1,2.7-1.5s.2,0,.3-.1l1.9-.6s.1,0,.1,0c2.6-1,3.9-1.9,5.6-4s.3-.5.3-.8c1.1-5.9.8-11.8.7-17.8,0-1.8,0-3.6,0-5.4,0-4.8-.1-9.5-.2-14.3,0-4.9-.1-9.7-.2-14.6,0-8.7-.2-17.4-.3-26.1,0-1.2-1.3-2-2.4-1.5-2.7,1.2-5.4,2.4-8.1,3.9-1,.6-2.1,1.1-3.1,1.7-1.1.6-2.2,1.2-3.4,1.8q-1.7.9-3.5,1.9c-8.3,4.5-16.5,9.1-24.7,13.8-9.1,5.2-18.3,10.1-27.5,15-1.1.6-2.2,1.2-3.4,1.8q-1.6.8-3.2,1.7c-2.3,1.2-4.5,2.6-6.7,4s-.1,0-.2,0c-2.8,1.4-3,1.5-5.5,1.6s-.5,0-.8-.1c-4.3-1.8-7-4.6-10.3-7.9-1.4-1.4-2.9-2.8-4.3-4.1-.7-.7-1.4-1.4-2.1-2.1-2.6-2.5-5.3-5-8-7.5-4.5-4.1-9-8.3-13.4-12.4-4.7-4.4-9.4-8.7-14.1-13.1-.9-.8-1.8-1.7-2.7-2.5s0,0,0,0c-3.6-3.7-4.3-4.4-7.1-6s-2.5.2-2.5,1.5Z" fill="currentColor"/>
</svg>