<svg xmlns:xlink="http://www.w3.org/1999/xlink"  viewBox="0 0 331 207" fill="none" xmlns="http://www.w3.org/2000/svg">
<path d="M298.651 34.646V35.146H299.151H308.216C320.244 35.146 329.992 44.861 329.992 56.8413V151.588C329.992 163.568 320.244 173.283 308.216 173.283H299.151H298.651V173.783V178.644C298.651 193.689 286.41 205.888 271.306 205.888H56.8962C41.7922 205.888 29.551 193.689 29.551 178.644V173.068V172.568H29.051H22.7859C10.7576 172.568 1.00977 162.853 1.00977 150.872V56.126C1.00977 44.1458 10.7575 34.4307 22.7859 34.4307H29.051H29.551V33.9307V28.3521C29.551 13.3072 41.7922 1.10791 56.8962 1.10791H271.306C286.41 1.10791 298.651 13.3072 298.651 28.3521V34.646Z" fill="#FFFCF7" stroke="#F4E3CC"/>
</svg>
