<svg xmlns="http://www.w3.org/2000/svg" width="37" height="28" viewBox="0 0 37 28" fill="none">
  <g transform="rotate(90 18.5 14)">
  <!-- Top petal -->
  <path d="M18.5 2C16.5 2 15 4 15 6.5C15 9 16.5 10.5 18.5 10.5C20.5 10.5 22 9 22 6.5C22 4 20.5 2 18.5 2Z" stroke="#CFCEC8"/>
  
  <!-- Top right petal -->
  <path d="M25 6C23.5 4.5 21 5 19.5 7C18 9 18.5 11.5 20.5 12.5C22.5 13.5 25 12.5 26 10C27 7.5 26.5 6 25 6Z" stroke="#CFCEC8"/>
  
  <!-- Bottom right petal -->
  <path d="M25 22C23.5 23.5 21 23 19.5 21C18 19 18.5 16.5 20.5 15.5C22.5 14.5 25 15.5 26 18C27 20.5 26.5 22 25 22Z" stroke="#CFCEC8"/>
  
  <!-- Bottom petal -->
  <path d="M18.5 26C16.5 26 15 24 15 21.5C15 19 16.5 17.5 18.5 17.5C20.5 17.5 22 19 22 21.5C22 24 20.5 26 18.5 26Z" stroke="#CFCEC8"/>
  
  <!-- Bottom left petal -->
  <path d="M12 22C13.5 23.5 16 23 17.5 21C19 19 18.5 16.5 16.5 15.5C14.5 14.5 12 15.5 11 18C10 20.5 10.5 22 12 22Z" stroke="#CFCEC8"/>
  
  <!-- Top left petal -->
  <path d="M12 6C13.5 4.5 16 5 17.5 7C19 9 18.5 11.5 16.5 12.5C14.5 13.5 12 12.5 11 10C10 7.5 10.5 6 12 6Z" stroke="#CFCEC8"/>
  
  <!-- Center circle -->
  <circle cx="18.5" cy="14" r="2" stroke="#CFCEC8"/>
  </g>
</svg>